<svg width="87" height="156" viewBox="0 0 87 156" fill="none"
    xmlns="http://www.w3.org/2000/svg">
    <path d="M43.4997 48.7143C56.6757 48.7143 67.3569 38.225 67.3569 25.2858C67.3569 12.3465 56.6757 1.85718 43.4997 1.85718C30.3238 1.85718 19.6426 12.3465 19.6426 25.2858C19.6426 38.225 30.3238 48.7143 43.4997 48.7143Z" stroke="#454444" strokeOpacity="0.18" strokeWidth="2.28571" strokeLinecap="round" strokeLinejoin="round" />
    <path d="M85.25 89.7144C85.25 78.8405 80.8514 68.412 73.0217 60.723C65.1921 53.034 54.5728 48.7144 43.5 48.7144C32.4272 48.7144 21.8079 53.034 13.9783 60.723C6.14865 68.412 1.75 78.8405 1.75 89.7144V107.286H19.6429L25.6071 154.143H61.3929L67.3571 107.286H85.25V89.7144Z" stroke="#454444" strokeOpacity="0.18" strokeWidth="2.28571" strokeLinecap="round" strokeLinejoin="round" />
</svg>