<svg width="115" height="115" viewBox="0 0 115 115" fill="none"
    xmlns="http://www.w3.org/2000/svg">
    <path d="M80.6607 35.8267L46.292 70.4433L33.2936 57.4448L28.3916 62.3468L43.8135 77.7687C44.502 78.4571 45.4383 79.0079 46.2645 79.0079C47.0906 79.0079 47.9994 78.4571 48.6879 77.7962L85.5076 40.7837L80.6607 35.8267Z" fill="#454444" fillOpacity="0.1" />
    <path d="M57.5 0.21875C25.8576 0.21875 0.21875 25.8576 0.21875 57.5C0.21875 89.1424 25.8576 114.781 57.5 114.781C89.1424 114.781 114.781 89.1424 114.781 57.5C114.781 25.8576 89.1424 0.21875 57.5 0.21875ZM57.5 110.017C28.5564 110.017 4.98301 86.4711 4.98301 57.5C4.98301 28.5564 28.5289 4.98301 57.5 4.98301C86.4436 4.98301 110.017 28.5289 110.017 57.5C110.017 86.4436 86.4436 110.017 57.5 110.017Z" fill="#454444" fillOpacity="0.1" />
</svg>