<svg width="100" height="102" viewBox="0 0 100 102" xmlns="http://www.w3.org/2000/svg">
<path d="M25.0003 93.5C22.7087 93.5 20.7462 92.667 19.1128 91.001C17.4795 89.335 16.6642 87.3347 16.667 85V42.5C16.667 40.1625 17.4837 38.1608 19.117 36.4948C20.7503 34.8288 22.7114 33.9972 25.0003 34H29.167V25.5C29.167 19.6208 31.1989 14.6087 35.2628 10.4635C39.3267 6.31834 44.2392 4.24717 50.0003 4.25C55.7642 4.25 60.6781 6.32259 64.742 10.4678C68.8059 14.6129 70.8364 19.6237 70.8337 25.5V34H75.0003C77.292 34 79.2545 34.833 80.8878 36.499C82.5212 38.165 83.3364 40.1653 83.3337 42.5V85C83.3337 87.3375 82.517 89.3392 80.8837 91.0052C79.2503 92.6712 77.2892 93.5028 75.0003 93.5H25.0003ZM25.0003 85H75.0003V42.5H25.0003V85ZM50.0003 72.25C52.292 72.25 54.2545 71.417 55.8878 69.751C57.5212 68.085 58.3364 66.0847 58.3337 63.75C58.3337 61.4125 57.517 59.4108 55.8837 57.7448C54.2503 56.0788 52.2892 55.2472 50.0003 55.25C47.7087 55.25 45.7462 56.083 44.1128 57.749C42.4795 59.415 41.6642 61.4153 41.667 63.75C41.667 66.0875 42.4837 68.0893 44.117 69.7553C45.7503 71.4213 47.7114 72.2528 50.0003 72.25ZM37.5003 34H62.5003V25.5C62.5003 21.9583 61.2851 18.9479 58.8545 16.4688C56.4239 13.9896 53.4726 12.75 50.0003 12.75C46.5281 12.75 43.5767 13.9896 41.1462 16.4688C38.7156 18.9479 37.5003 21.9583 37.5003 25.5V34Z" fill="#fff"/>
</svg>
