<svg width="118" height="118" viewBox="0 0 118 118" fill="none"
    xmlns="http://www.w3.org/2000/svg">
    <path d="M41.75 82C46.6375 85.6225 52.5887 87.75 59 87.75C65.4113 87.75 71.3625 85.6225 76.25 82" stroke="#454444" strokeOpacity="0.15" strokeWidth="2" strokeLinecap="round" />
    <path d="M76.25 59C79.4256 59 82 55.1385 82 50.375C82 45.6115 79.4256 41.75 76.25 41.75C73.0744 41.75 70.5 45.6115 70.5 50.375C70.5 55.1385 73.0744 59 76.25 59Z" fill="#454444" fillOpacity="0.15" />
    <path d="M41.75 59C44.9256 59 47.5 55.1385 47.5 50.375C47.5 45.6115 44.9256 41.75 41.75 41.75C38.5744 41.75 36 45.6115 36 50.375C36 55.1385 38.5744 59 41.75 59Z" fill="#454444" fillOpacity="0.15" />
    <path d="M116.5 70.5C116.5 92.1833 116.5 103.028 109.761 109.761C103.028 116.5 92.1833 116.5 70.5 116.5M47.5 116.5C25.8168 116.5 14.9723 116.5 8.239 109.761C1.5 103.028 1.5 92.1833 1.5 70.5M47.5 1.5C25.8168 1.5 14.9723 1.5 8.239 8.239C1.5 14.9723 1.5 25.8168 1.5 47.5M70.5 1.5C92.1833 1.5 103.028 1.5 109.761 8.239C116.5 14.9723 116.5 25.8168 116.5 47.5" stroke="#454444" strokeOpacity="0.15" strokeWidth="2" strokeLinecap="round" />
</svg>